<svg width="299" height="78" viewBox="0 0 299 78" fill="none" xmlns="http://www.w3.org/2000/svg">
<path d="M115.779 45.3979C115.779 80.7632 178.824 83.5261 180.362 45.3979L115.779 45.3979Z" fill="#C64532"/>
<path d="M115.779 45.3979C115.779 80.7632 178.824 83.5261 180.362 45.3979L115.779 45.3979Z" stroke="#1F6F78"/>
<path d="M114.548 45.3982C114.548 84.5114 180.63 84.2151 181.592 45.3982" stroke="#1F6F78" stroke-width="5"/>
<path d="M115.779 45.3979C115.779 83.0352 179.435 82.7501 180.362 45.3979" stroke="#F8F1D7" stroke-width="2"/>
<path d="M127.42 53.1387C125.924 53.6357 123.234 54.8888 124.441 55.9253C125.647 56.9618 126.929 54.4994 127.42 53.1387Z" fill="black" stroke="black"/>
<path d="M137.609 59.8484C136.536 60.9065 134.791 63.1285 136.394 63.5513C137.997 63.9741 137.872 61.2589 137.609 59.8484Z" fill="black" stroke="black"/>
<path d="M148.025 63.749C147.329 65.0356 146.354 67.6088 148.025 67.6088C149.696 67.6088 148.722 65.0356 148.025 63.749Z" fill="black" stroke="black"/>
<path d="M159.2 60.3514C158.899 61.7557 158.7 64.4673 160.314 64.0796C161.928 63.6919 160.244 61.4326 159.2 60.3514Z" fill="black" stroke="black"/>
<path d="M138.413 49.6714C137.092 50.4735 134.813 52.265 136.26 53.014C137.707 53.763 138.298 51.0976 138.413 49.6714Z" fill="black" stroke="black"/>
<path d="M156.985 49.678C157.099 51.1043 157.69 53.7696 159.138 53.0207C160.585 52.2717 158.305 50.4802 156.985 49.678Z" fill="black" stroke="black"/>
<path d="M169.676 52.9665C169.779 54.3935 170.349 57.0625 171.802 56.3227C173.255 55.5829 170.99 53.777 169.676 52.9665Z" fill="black" stroke="black"/>
<path d="M69.6639 32.44C69.9839 32.7067 70.0639 33.04 69.9039 33.44C69.7439 33.8133 69.4639 34 69.0639 34C69.0639 34 68.8239 34 68.3439 34C67.8639 34 67.3039 34 66.6639 34C66.0506 34 65.4106 34 64.7439 34C64.1039 34 63.5306 34 63.0239 34C62.5439 34 62.2772 34 62.2239 34C61.9039 33.9467 61.6639 33.7733 61.5039 33.48C61.3706 33.1867 61.3839 32.9067 61.5439 32.64C62.0772 31.68 61.8906 29.4533 60.9839 25.96L59.4639 20.28H53.2639L51.9039 25.44C51.8239 25.7067 51.6639 25.9333 51.4239 26.12C51.2106 26.28 50.9706 26.36 50.7039 26.36C50.6239 26.36 50.2906 26.36 49.7039 26.36C49.4106 26.36 49.1839 26.28 49.0239 26.12C48.8906 25.96 48.8772 25.76 48.9839 25.52C49.0906 25.2533 49.3439 25 49.7439 24.76C50.3839 24.44 50.9572 23.8667 51.4639 23.04C51.9972 22.2133 52.5306 20.8667 53.0639 19L56.0639 7.72L55.8239 6.76C55.7972 6.62666 55.7972 6.50666 55.8239 6.4C55.8772 6.26666 55.9572 6.17333 56.0639 6.12C56.1706 6.04 56.2906 6 56.4239 6H60.7439C61.0372 6 61.2239 6.14667 61.3039 6.44L66.5439 25.96V25.92C67.4239 29.2 68.4639 31.3733 69.6639 32.44ZM53.4239 19.72H59.3039L56.3839 8.76L53.4239 19.72ZM54.1839 26.88C54.3706 26.6133 54.6372 26.4933 54.9839 26.52C55.3306 26.5467 55.5706 26.72 55.7039 27.04C55.8639 27.4667 56.0639 28.5467 56.3039 30.28C56.5706 31.9867 56.6906 33.0267 56.6639 33.4V33.48C56.6639 33.6133 56.6106 33.7333 56.5039 33.84C56.4239 33.9467 56.3039 34 56.1439 34H35.7439C35.3706 34 35.0906 33.84 34.9039 33.52C34.7439 33.1733 34.7839 32.84 35.0239 32.52C35.7439 31.5067 36.1572 29.3067 36.2639 25.92V14.04C36.1572 10.68 35.7306 8.49333 34.9839 7.48C34.7706 7.16 34.7439 6.84 34.9039 6.52C35.0906 6.17333 35.3706 6 35.7439 6C35.7706 6 36.8772 6 39.0639 6C41.2772 6 42.3839 6 42.3839 6C42.7572 6 43.0239 6.17333 43.1839 6.52C43.3706 6.84 43.3572 7.16 43.1439 7.48C42.3972 8.49333 41.9706 10.68 41.8639 14.04V33.4H46.9039C47.8639 33.3733 48.7306 33.1733 49.5039 32.8C50.2772 32.4267 50.9172 31.9467 51.4239 31.36C51.9572 30.7467 52.3972 30.1733 52.7439 29.64C53.0906 29.08 53.3972 28.52 53.6639 27.96C53.9306 27.3733 54.1039 27.0133 54.1839 26.88ZM96.8936 6C98.5736 6 100.04 6.13333 101.294 6.4C102.574 6.66667 103.56 7 104.254 7.4C104.947 7.8 105.507 8.28 105.934 8.84C106.36 9.37333 106.64 9.88 106.774 10.36C106.907 10.84 106.974 11.3467 106.974 11.88C106.974 12.3333 106.92 12.7733 106.814 13.2C106.707 13.6267 106.534 14.0933 106.294 14.6C106.054 15.1067 105.68 15.5733 105.174 16C104.694 16.4267 104.094 16.8267 103.374 17.2C102.68 17.5467 101.774 17.8267 100.654 18.04C99.5336 18.2267 98.2803 18.32 96.8936 18.32C96.0669 18.32 95.3336 18.5333 94.6936 18.96C94.0803 19.3867 93.6136 19.92 93.2936 20.56C92.9736 21.1733 92.7336 21.7067 92.5736 22.16C92.4403 22.6133 92.3469 23 92.2936 23.32V25.96C92.4269 29.48 92.8803 31.7067 93.6536 32.64C93.8936 32.9067 93.9469 33.2 93.8136 33.52C93.6803 33.84 93.4536 34 93.1336 34H85.9336C85.5869 34 85.3469 33.84 85.2136 33.52C85.1069 33.2 85.1603 32.9067 85.3736 32.64C86.1736 31.7067 86.6269 29.48 86.7336 25.96V14.08C86.6269 10.5333 86.1736 8.29333 85.3736 7.36C85.1603 7.09333 85.1069 6.8 85.2136 6.48C85.3469 6.16 85.5869 6 85.9336 6H96.8936ZM96.8936 17.72C98.3336 17.72 99.4403 17.1867 100.214 16.12C100.987 15.0533 101.374 13.7333 101.374 12.16C101.374 10.4 100.987 9.02666 100.214 8.04C99.4669 7.05333 98.3603 6.56 96.8936 6.56H92.2936V21.36C92.3469 21.1733 92.4669 20.9067 92.6536 20.56C92.8403 20.1867 93.1069 19.7867 93.4536 19.36C93.8269 18.9067 94.3069 18.52 94.8936 18.2C95.5069 17.88 96.1736 17.72 96.8936 17.72ZM136.298 17.2C137.818 17.6267 139.205 18.12 140.458 18.68C141.738 19.24 142.952 19.92 144.098 20.72C145.245 21.4933 146.138 22.4 146.778 23.44C147.445 24.48 147.778 25.6 147.778 26.8C147.778 28.2933 147.098 29.64 145.738 30.84C144.405 32.04 142.672 32.96 140.538 33.6C138.432 34.2133 136.178 34.52 133.778 34.52C132.445 34.52 131.218 34.4667 130.098 34.36C128.978 34.28 127.805 34.1067 126.578 33.84C125.378 33.5733 124.272 33.2 123.258 32.72C122.272 32.24 121.338 31.6533 120.458 30.96C119.578 30.2667 118.805 29.3867 118.138 28.32C117.498 27.2533 116.992 26.0533 116.618 24.72L115.458 20.28H109.298L107.778 25.96C106.898 29.32 106.925 31.5867 107.858 32.76C108.018 32.9733 108.045 33.24 107.938 33.56C107.858 33.8533 107.698 34 107.458 34H104.658C104.258 34 103.978 33.8133 103.818 33.44C103.685 33.04 103.778 32.7067 104.098 32.44C105.298 31.3733 106.325 29.2133 107.178 25.96L112.098 7.72L111.858 6.76C111.805 6.62666 111.805 6.50666 111.858 6.4C111.912 6.29333 111.978 6.2 112.058 6.12C112.165 6.04 112.285 6 112.418 6H116.778C117.072 6 117.258 6.14667 117.338 6.44L122.218 24.72C122.512 25.8133 122.992 26.9067 123.658 28C124.352 29.0667 125.178 30.0667 126.138 31C127.098 31.9067 128.245 32.64 129.578 33.2C130.938 33.76 132.325 34.04 133.738 34.04C135.978 34.04 137.938 33.4533 139.618 32.28C141.325 31.08 142.178 29.5733 142.178 27.76C142.178 25.9467 141.538 24.4133 140.258 23.16C138.978 21.88 137.205 20.9467 134.938 20.36C133.605 20.0133 132.458 19.6933 131.498 19.4C130.565 19.1067 129.525 18.7067 128.378 18.2C127.258 17.6933 126.338 17.16 125.618 16.6C124.925 16.04 124.325 15.3467 123.818 14.52C123.338 13.6667 123.098 12.7333 123.098 11.72C123.098 10.3333 123.618 9.16 124.658 8.2C125.725 7.21333 127.085 6.52 128.738 6.12C130.392 5.69333 132.272 5.48 134.378 5.48C135.792 5.48 137.112 5.6 138.338 5.84C139.592 6.08 140.632 6.37333 141.458 6.72C142.312 7.04 143.085 7.44 143.778 7.92C144.472 8.37333 145.005 8.78666 145.378 9.16C145.752 9.53333 146.072 9.92 146.338 10.32C146.525 10.5867 146.485 10.8267 146.218 11.04L143.338 13.4C143.072 13.6667 142.832 13.7467 142.618 13.64C142.432 13.5067 142.232 13.1333 142.018 12.52C141.992 12.4667 141.965 12.3867 141.938 12.28C141.725 11.72 141.538 11.2533 141.378 10.88C141.245 10.5067 140.965 9.97333 140.538 9.28C140.112 8.58666 139.658 8.02666 139.178 7.6C138.698 7.17333 138.032 6.8 137.178 6.48C136.352 6.13333 135.432 5.96 134.418 5.96C132.845 5.96 131.498 6.50667 130.378 7.6C129.258 8.69333 128.698 9.98667 128.698 11.48C128.698 12.3067 128.952 13.0533 129.458 13.72C129.992 14.3867 130.805 15 131.898 15.56C133.018 16.12 134.485 16.6667 136.298 17.2ZM109.458 19.72H115.338L112.378 8.8L109.458 19.72ZM177.862 6C177.995 6 178.102 6.05333 178.182 6.16C178.289 6.24 178.342 6.34667 178.342 6.48C177.942 11.1467 177.609 13.7867 177.342 14.4C177.209 14.72 176.969 14.9067 176.622 14.96C176.302 14.9867 176.049 14.8533 175.862 14.56C175.755 14.4267 175.569 14.0267 175.302 13.36C175.062 12.6933 174.755 12.0133 174.382 11.32C174.035 10.6267 173.609 9.92 173.102 9.2C172.595 8.45333 171.942 7.84 171.142 7.36C170.369 6.88 169.515 6.61333 168.582 6.56H166.422V25.96C166.529 29.32 166.955 31.5067 167.702 32.52C167.915 32.84 167.929 33.1733 167.742 33.52C167.582 33.84 167.315 34 166.942 34C166.862 34 165.755 34 163.622 34C161.515 34 160.409 34 160.302 34C159.929 34 159.662 33.84 159.502 33.52C159.342 33.1733 159.369 32.84 159.582 32.52C160.302 31.5067 160.729 29.32 160.862 25.96V6.56H158.702C157.769 6.61333 156.902 6.88 156.102 7.36C155.329 7.84 154.689 8.45333 154.182 9.2C153.675 9.92 153.249 10.6267 152.902 11.32C152.555 12.0133 152.249 12.6933 151.982 13.36C151.715 14.0267 151.529 14.4267 151.422 14.56C151.235 14.8533 150.969 14.9867 150.622 14.96C150.302 14.9067 150.075 14.72 149.942 14.4C149.755 14 149.529 12.6667 149.262 10.4C149.022 8.13333 148.915 6.85333 148.942 6.56C148.942 6.42666 148.995 6.30666 149.102 6.2C149.209 6.06666 149.342 6 149.502 6H177.862ZM191.378 4.28L188.098 0.719999C187.965 0.613332 187.925 0.493332 187.978 0.359999C188.058 0.199998 188.178 0.119998 188.338 0.119998H190.578C190.765 0.119998 190.885 0.213331 190.938 0.399999L191.738 4.08C191.765 4.24 191.685 4.32 191.498 4.32C191.445 4.32 191.405 4.30667 191.378 4.28ZM200.618 27.08C200.752 27.3467 200.898 28.0133 201.058 29.08C201.218 30.1467 201.352 31.1333 201.458 32.04C201.565 32.92 201.618 33.3867 201.618 33.44V33.48C201.618 33.6133 201.565 33.7333 201.458 33.84C201.352 33.9467 201.232 34 201.098 34H180.938C180.565 34 180.298 33.84 180.138 33.52C179.978 33.1733 180.005 32.84 180.218 32.52C180.618 31.9333 180.912 31.1733 181.098 30.24C181.312 29.3067 181.445 27.88 181.498 25.96V14.04C181.445 12.7333 181.365 11.6533 181.258 10.8C181.152 9.94666 181.018 9.28 180.858 8.8C180.698 8.32 180.485 7.88 180.218 7.48C180.005 7.16 179.978 6.84 180.138 6.52C180.298 6.17333 180.565 6 180.938 6H200.178C200.338 6 200.472 6.05333 200.578 6.16C200.685 6.26667 200.738 6.38667 200.738 6.52V6.56V6.6C200.738 6.62667 200.685 7.09333 200.578 8C200.472 8.88 200.325 9.85333 200.138 10.92C199.978 11.9867 199.845 12.6667 199.738 12.96C199.605 13.28 199.365 13.4533 199.018 13.48C198.672 13.5067 198.405 13.3867 198.218 13.12C198.138 12.9867 197.965 12.64 197.698 12.08C197.432 11.4933 197.125 10.9333 196.778 10.4C196.432 9.84 196.005 9.26667 195.498 8.68C194.992 8.06667 194.338 7.57333 193.538 7.2C192.765 6.82667 191.898 6.61333 190.938 6.56H187.058V22.88C187.752 21.5467 189.178 20.3333 191.338 19.24C193.525 18.12 195.138 17.56 196.178 17.56C196.765 17.56 197.058 17.8 197.058 18.28V19.96C197.058 20.3333 196.885 20.6 196.538 20.76C196.218 20.92 195.912 20.8933 195.618 20.68C194.338 19.8533 192.778 19.76 190.938 20.4C189.125 21.0133 187.832 22.04 187.058 23.48V33.44H192.138C192.885 33.36 193.592 33.1733 194.258 32.88C194.925 32.5867 195.472 32.24 195.898 31.84C196.352 31.4133 196.765 30.9467 197.138 30.44C197.538 29.9067 197.845 29.4267 198.058 29C198.272 28.5733 198.472 28.1467 198.658 27.72C198.872 27.2933 199.018 27.0267 199.098 26.92C199.312 26.6267 199.578 26.5067 199.898 26.56C200.245 26.5867 200.485 26.76 200.618 27.08ZM202.825 20.12C202.825 17.48 203.412 15.0533 204.585 12.84C205.758 10.6 207.358 8.84 209.385 7.56C211.412 6.25333 213.612 5.6 215.985 5.6C218.358 5.6 220.558 6.25333 222.585 7.56C224.612 8.84 226.212 10.6 227.385 12.84C228.558 15.0533 229.145 17.48 229.145 20.12C229.145 23.6133 228.145 26.6933 226.145 29.36C224.145 32.0267 221.625 33.6933 218.585 34.36C219.145 34.52 219.665 34.76 220.145 35.08C220.812 35.5333 221.492 35.9067 222.185 36.2C222.878 36.52 223.572 36.7467 224.265 36.88C224.958 37.0133 225.612 37 226.225 36.84C226.838 36.68 227.345 36.3467 227.745 35.84C227.852 35.7067 227.985 35.6933 228.145 35.8C228.305 35.9067 228.332 36.04 228.225 36.2C227.798 36.8133 227.345 37.3867 226.865 37.92C226.385 38.4533 225.758 39 224.985 39.56C224.238 40.12 223.478 40.52 222.705 40.76C221.932 41.0267 221.038 41.08 220.025 40.92C219.012 40.7867 217.998 40.3733 216.985 39.68C216.772 39.52 216.412 39.2533 215.905 38.88C215.425 38.5067 215.025 38.2133 214.705 38C214.412 37.7867 214.025 37.56 213.545 37.32C213.065 37.1067 212.652 36.9867 212.305 36.96C211.958 36.9333 211.572 37 211.145 37.16C210.745 37.32 210.385 37.6267 210.065 38.08C209.958 38.2133 209.825 38.2267 209.665 38.12C209.505 38.0133 209.478 37.88 209.585 37.72C209.932 37.2667 210.358 36.84 210.865 36.44C211.372 36.04 211.932 35.6667 212.545 35.32C213.185 35 213.838 34.7467 214.505 34.56C212.318 34.2933 210.332 33.4933 208.545 32.16C206.785 30.8 205.385 29.0667 204.345 26.96C203.332 24.8533 202.825 22.5733 202.825 20.12ZM222.545 27.16C223.212 25 223.545 22.6533 223.545 20.12C223.545 17.5867 223.212 15.24 222.545 13.08C221.878 10.92 220.958 9.21333 219.785 7.96C218.612 6.70667 217.332 6.08 215.945 6.08C214.585 6.08 213.318 6.70667 212.145 7.96C210.998 9.21333 210.092 10.92 209.425 13.08C208.758 15.24 208.425 17.5867 208.425 20.12C208.425 22.6533 208.758 25 209.425 27.16C210.092 29.32 210.998 31.0267 212.145 32.28C213.318 33.5333 214.585 34.16 215.945 34.16C217.332 34.16 218.612 33.5333 219.785 32.28C220.958 31.0267 221.878 29.32 222.545 27.16ZM239.104 6C239.45 6 239.677 6.16 239.784 6.48C239.917 6.8 239.877 7.09333 239.664 7.36C238.89 8.29333 238.437 10.5333 238.304 14.08V25.04C238.304 28.2933 238.744 30.6133 239.624 32C240.504 33.36 241.984 34.04 244.064 34.04C245.29 34.04 246.344 33.9733 247.224 33.84C248.104 33.68 248.85 33.44 249.464 33.12C250.104 32.7733 250.61 32.3733 250.984 31.92C251.384 31.4667 251.69 30.88 251.904 30.16C252.117 29.44 252.264 28.6933 252.344 27.92C252.424 27.1467 252.464 26.1867 252.464 25.04V14.08C252.33 10.2667 251.81 7.96 250.904 7.16C250.717 7 250.65 6.8 250.704 6.56C250.784 6.29333 250.957 6.13333 251.224 6.08C251.437 6.02667 251.944 6 252.744 6C253.544 6 254.05 6.02667 254.264 6.08C254.53 6.13333 254.69 6.29333 254.744 6.56C254.824 6.8 254.77 7 254.584 7.16C253.677 7.96 253.157 10.2667 253.024 14.08V25.04C253.024 26.96 252.904 28.4933 252.664 29.64C252.424 30.7867 251.957 31.7467 251.264 32.52C250.57 33.2933 249.664 33.8133 248.544 34.08C247.424 34.3733 245.93 34.52 244.064 34.52C240.224 34.52 237.37 33.8267 235.504 32.44C233.664 31.0267 232.744 28.56 232.744 25.04V14.08C232.637 10.5333 232.184 8.29333 231.384 7.36C231.17 7.09333 231.117 6.8 231.224 6.48C231.357 6.16 231.597 6 231.944 6H239.104ZM257.171 7.48C256.958 7.16 256.931 6.84 257.091 6.52C257.251 6.17333 257.518 6 257.891 6H277.131C277.291 6 277.425 6.05333 277.531 6.16C277.638 6.26667 277.691 6.38667 277.691 6.52V6.56V6.6C277.691 6.62667 277.638 7.09333 277.531 8C277.425 8.88 277.278 9.85333 277.091 10.92C276.931 11.9867 276.798 12.6667 276.691 12.96C276.558 13.28 276.318 13.4533 275.971 13.48C275.625 13.5067 275.358 13.3867 275.171 13.12C275.091 12.9867 274.945 12.7067 274.731 12.28C274.518 11.8533 274.305 11.4267 274.091 11C273.878 10.5467 273.558 10.0533 273.131 9.52C272.731 8.98667 272.305 8.52 271.851 8.12C271.398 7.69333 270.825 7.33333 270.131 7.04C269.438 6.74666 268.691 6.58666 267.891 6.56H264.011V22.88C264.705 21.5467 266.131 20.3333 268.291 19.24C270.478 18.12 272.091 17.56 273.131 17.56C273.718 17.56 274.011 17.8 274.011 18.28V19.96C274.011 20.3333 273.838 20.6 273.491 20.76C273.171 20.92 272.865 20.8933 272.571 20.68C271.291 19.8533 269.731 19.76 267.891 20.4C266.078 21.0133 264.785 22.04 264.011 23.48V33.44H269.091C269.731 33.3867 270.345 33.2533 270.931 33.04C271.518 32.8 272.025 32.5067 272.451 32.16C272.878 31.8133 273.265 31.44 273.611 31.04C273.958 30.64 274.265 30.2267 274.531 29.8C274.798 29.3467 275.025 28.9467 275.211 28.6C275.398 28.2533 275.571 27.92 275.731 27.6C275.891 27.2533 275.998 27.0267 276.051 26.92C276.265 26.6267 276.531 26.5067 276.851 26.56C277.198 26.5867 277.438 26.76 277.571 27.08C277.651 27.24 277.731 27.5733 277.811 28.08C277.918 28.5867 278.011 29.1333 278.091 29.72C278.171 30.3067 278.251 30.8933 278.331 31.48C278.411 32.04 278.465 32.5067 278.491 32.88C278.545 33.2267 278.571 33.4133 278.571 33.44V33.48C278.571 33.6133 278.518 33.7333 278.411 33.84C278.305 33.9467 278.185 34 278.051 34H257.891C257.518 34 257.251 33.84 257.091 33.52C256.931 33.1733 256.958 32.84 257.171 32.52C257.571 31.9333 257.865 31.1733 258.051 30.24C258.265 29.3067 258.398 27.88 258.451 25.96V14.08C258.398 12.7467 258.318 11.6533 258.211 10.8C258.105 9.94666 257.971 9.28 257.811 8.8C257.651 8.32 257.438 7.88 257.171 7.48Z" fill="#1F6F78"/>
<line x1="112.829" y1="46.3979" x2="34.612" y2="46.3979" stroke="#1F6F78" stroke-width="2"/>
<line x1="277" y1="46.3979" x2="181.592" y2="46.3979" stroke="#1F6F78" stroke-width="2"/>
</svg>
